<svg width="182" height="55" viewBox="0 0 182 55" fill="none" xmlns="http://www.w3.org/2000/svg">
<path d="M18.5176 23.843C14.0635 23.843 10.4342 27.4794 10.4342 31.9422C10.4342 36.405 14.0222 40.0414 18.5176 40.0414C23.013 40.0414 26.601 36.405 26.601 31.9422C26.601 27.4794 22.9717 23.843 18.5176 23.843ZM18.5176 37.4381C15.5069 37.4381 13.0324 35 13.0324 31.9422C13.0324 28.9257 15.4657 26.4463 18.5176 26.4463C21.5282 26.4463 24.0028 28.8843 24.0028 31.9422C23.9615 34.9587 21.5282 37.4381 18.5176 37.4381Z" fill="white"/>
<path d="M84.4632 18.6777V18.595C84.4632 18.5124 84.4632 18.4298 84.4219 18.4298V18.3884C84.4219 18.2645 84.3807 18.0992 84.3395 17.9752C84.3395 17.8926 84.2982 17.8512 84.2982 17.7686V17.686C84.257 17.562 84.257 17.438 84.2157 17.3141C84.1745 17.2314 84.1745 17.1488 84.1332 17.1074L84.092 17.0248C84.0508 16.9008 84.0095 16.8182 83.9683 16.6942C83.927 16.6116 83.8858 16.5289 83.8858 16.4876L83.8446 16.405C83.8033 16.3223 83.7621 16.1983 83.6796 16.1157C83.6383 16.0331 83.5971 15.9917 83.5559 15.9504L83.5146 15.8678C83.4734 15.7851 83.3909 15.7025 83.3497 15.6198C83.3084 15.5372 83.2672 15.4959 83.2259 15.4132L83.1847 15.3719C83.1434 15.2893 83.061 15.2066 82.9785 15.124C82.9372 15.0826 82.8548 15 82.8135 14.9587L82.7723 14.9174C82.6898 14.8347 82.6485 14.7521 82.5661 14.6694C82.5248 14.6281 82.4423 14.5455 82.4011 14.5041L82.3598 14.4628C82.2774 14.3802 82.1949 14.3388 82.1536 14.2562C82.0712 14.2149 81.9887 14.1322 81.9474 14.0909L81.9062 14.0496C81.8237 13.9669 81.7412 13.9256 81.6587 13.843C81.5763 13.8017 81.4938 13.7603 81.4113 13.6777C81.3288 13.6364 81.2051 13.5537 81.1226 13.5124C81.0401 13.4711 80.9576 13.4298 80.8339 13.3884C80.7102 13.3471 80.6277 13.3058 80.5452 13.2645C80.4627 13.2231 80.339 13.1818 80.2565 13.1405C80.1328 13.0992 80.0503 13.0579 79.9266 13.0165C79.8441 12.9752 79.7616 12.9752 79.6379 12.9339C79.5554 12.9339 79.5142 12.8926 79.4317 12.8926C79.3904 12.8926 79.308 12.8512 79.2667 12.8512C79.1842 12.8512 79.1017 12.8099 78.978 12.8099C78.8543 12.8099 78.7718 12.7686 78.6481 12.7686C78.5656 12.7686 78.4419 12.7686 78.3181 12.7686C78.1944 12.7686 78.0707 12.7686 77.9882 12.7686C77.947 12.7686 77.9057 12.7686 77.8232 12.7686C77.782 12.7686 77.6995 12.7686 77.617 12.7686C77.5346 12.7686 77.4108 12.7686 77.3283 12.8099C77.2459 12.8099 77.1221 12.8512 77.0397 12.8512C76.9159 12.8926 76.7922 12.8926 76.6272 12.9339L76.5035 12.9752C73.6578 13.719 71.7195 16.281 71.7195 19.2149V35.1653C71.7195 35.9504 71.3895 36.6942 70.8534 37.2314C70.276 37.7686 69.5337 38.0579 68.7501 38.0165C67.2654 37.9339 66.0281 36.6116 66.0281 35.0413V19.2975C66.0281 17.6033 65.3682 15.9917 64.1722 14.7521L64.0897 14.6694C63.1824 13.8017 62.0689 13.1818 60.8729 12.9339C59.3882 12.6446 57.821 12.8512 56.5012 13.595C54.3979 14.7107 53.1194 16.9008 53.1194 19.2975V35.2066C53.0369 36.8182 51.8822 38.0578 50.3975 38.0992C50.315 38.0992 50.2325 38.0992 50.15 38.0992C50.0675 38.0992 49.985 38.0992 49.9026 38.0578H49.7788C49.7376 38.0578 49.6551 38.0579 49.6139 38.0165L49.5314 37.9752C49.4901 37.9752 49.4489 37.9339 49.4077 37.9339L49.3252 37.8926C49.2839 37.8926 49.2427 37.8512 49.2015 37.8512L49.0777 37.8099C49.0365 37.8099 48.9952 37.7686 48.954 37.7273C48.9128 37.686 48.8303 37.6446 48.789 37.6033L48.7065 37.5207C48.6653 37.5207 48.6653 37.4793 48.5828 37.438L48.5003 37.3967C48.4591 37.3554 48.4179 37.314 48.3766 37.2727L48.3354 37.2314C48.2941 37.1901 48.2529 37.1488 48.2116 37.1074L48.1704 37.0661C47.8817 36.6942 47.6755 36.281 47.5518 35.8264C47.4693 35.5785 47.4693 35.3306 47.4693 35.0826V19.2975C47.4693 16.3636 45.4897 13.8017 42.644 13.0579L42.479 13.0165C42.3553 12.9752 42.2316 12.9752 42.0666 12.9339C41.9841 12.9339 41.8604 12.8926 41.7779 12.8926C41.6954 12.8926 41.5717 12.8512 41.448 12.8512C41.4068 12.8512 41.3243 12.8512 41.2418 12.8512H41.1181C41.0356 12.8512 40.9531 12.8512 40.7881 12.8512C40.7469 12.8512 40.7056 12.8512 40.6644 12.8512C39.922 12.8512 39.3447 13.4298 39.3447 14.1736C39.3447 14.9174 39.922 15.4959 40.6644 15.4959C40.7469 15.4959 40.7881 15.4959 40.9118 15.4959H41.2418C41.3243 15.4959 41.4068 15.4959 41.4892 15.5372C41.5305 15.5372 41.613 15.5372 41.6542 15.5785C41.7367 15.5785 41.8192 15.6198 41.8604 15.6198L41.9841 15.6612C43.6751 16.1157 44.8298 17.6446 44.8298 19.3802V35.1653C44.8298 35.6198 44.8711 36.0744 44.9948 36.5289C45.201 37.3554 45.6134 38.1405 46.1496 38.8017L46.1908 38.843C46.2733 38.9256 46.3558 39.0083 46.4383 39.1322L46.5207 39.2149C46.6032 39.2975 46.6857 39.3802 46.7682 39.4628L46.8919 39.5868C46.9744 39.6694 47.0156 39.7107 47.0981 39.7521C47.1394 39.7934 47.1806 39.8347 47.2218 39.8347L47.2631 39.876C47.3868 39.9587 47.4693 40.0413 47.6343 40.0826C47.7167 40.124 47.7992 40.1653 47.8817 40.2066L48.0467 40.2893C48.1292 40.3306 48.2116 40.3719 48.2941 40.4132C48.3766 40.4545 48.4179 40.4545 48.5003 40.4959C48.5828 40.5372 48.7066 40.5785 48.789 40.5785C48.8715 40.5785 48.9128 40.6198 48.9952 40.6198C49.119 40.6612 49.2015 40.6612 49.3252 40.7025L49.4901 40.7438C49.6551 40.7851 49.8201 40.7851 49.985 40.7851C50.15 40.7851 50.315 40.7851 50.4799 40.7851C53.3256 40.6612 55.5939 38.3471 55.7177 35.3719V35.3306V19.3802C55.7177 17.9752 56.5012 16.6942 57.7385 15.9917C58.5221 15.5785 59.4707 15.4132 60.3367 15.6198C61.0378 15.7851 61.6977 16.1157 62.2339 16.6529L62.2751 16.6942C62.9762 17.3967 63.3886 18.3884 63.3886 19.3802V35.1653C63.3886 38.1405 65.7394 40.6612 68.5851 40.7851C70.0698 40.8678 71.5133 40.3306 72.6268 39.2562C73.6991 38.2231 74.3177 36.8182 74.3177 35.2893V19.2975C74.3177 17.562 75.4725 16.0331 77.1634 15.5785L77.2871 15.5372C77.3696 15.5372 77.4521 15.4959 77.5346 15.4959C77.5758 15.4959 77.6583 15.4959 77.6995 15.4545C77.782 15.4545 77.8232 15.4545 77.9057 15.4545H78.1944C78.1944 15.4545 78.2357 15.4545 78.2769 15.4545C78.3594 15.4545 78.4419 15.4545 78.5244 15.4545C78.6068 15.4545 78.6481 15.4545 78.7306 15.4959C78.813 15.4959 78.8543 15.4959 78.8955 15.5372L79.0605 15.5785C79.143 15.6198 79.2255 15.6198 79.2667 15.6198C79.3492 15.6198 79.3904 15.6612 79.4729 15.7025C79.5142 15.7438 79.5966 15.7438 79.6379 15.7851C79.6791 15.8264 79.7616 15.8264 79.8029 15.8678C79.8441 15.9091 79.9266 15.9091 79.9678 15.9504C80.0091 15.9917 80.0916 15.9917 80.1328 16.0331C80.174 16.0744 80.2153 16.0744 80.2565 16.1157C80.2978 16.157 80.339 16.1983 80.4215 16.2397L80.4627 16.281C80.504 16.3223 80.5452 16.3223 80.5864 16.3636C80.6277 16.405 80.6689 16.4463 80.7102 16.4876L80.7514 16.5289C80.7927 16.5702 80.8339 16.5702 80.8339 16.6116C80.8751 16.6529 80.9164 16.6942 80.9576 16.7355L80.9989 16.7769C81.0401 16.8182 81.0401 16.8182 81.0814 16.8595C81.1226 16.9008 81.1638 16.9421 81.2051 16.9835L81.2463 17.0661C81.2876 17.1074 81.2876 17.1074 81.3288 17.1488C81.37 17.1901 81.37 17.2314 81.4113 17.2727L81.4525 17.3554C81.4525 17.3967 81.4938 17.3967 81.4938 17.438C81.535 17.4793 81.535 17.5207 81.5763 17.6033L81.6175 17.686C81.6175 17.7273 81.6587 17.7273 81.6587 17.7686C81.7 17.8099 81.7 17.8926 81.7412 17.9339L81.7825 18.0579C81.7825 18.0992 81.7825 18.0992 81.8237 18.1405C81.8237 18.1818 81.8649 18.2645 81.8649 18.3471L81.9062 18.5124C81.9062 18.595 81.9474 18.6777 81.9474 18.7603V18.8843C81.9474 19.0083 81.9474 19.1322 81.9474 19.2975V35C81.9474 42.2314 76.2148 48.2231 69.1212 48.3884C65.9044 48.4711 62.8112 47.3554 60.3367 45.2893L59.4707 44.5868L58.6046 45.2893C58.2334 45.5785 57.8622 45.8678 57.491 46.1157C55.429 47.5207 52.9957 48.3058 50.4799 48.3884C50.2737 48.3884 50.0263 48.3884 49.8201 48.3884C49.5726 48.3884 49.3252 48.3884 49.119 48.3471L48.9128 48.3058C48.7478 48.3058 48.5828 48.2645 48.4179 48.2645C48.3354 48.2645 48.2941 48.2645 48.2116 48.2231H48.1292C47.9642 48.1818 47.8405 48.1818 47.6755 48.1405L47.4693 48.0992C47.3043 48.0579 47.1394 48.0165 46.9744 47.9752L46.7269 47.8926C46.562 47.8512 46.4383 47.8099 46.2733 47.7686L46.0671 47.686C45.9021 47.6446 45.7371 47.562 45.5722 47.5207L45.4484 47.4793C44.9948 47.3141 44.5824 47.1074 44.17 46.9008C39.7571 44.6281 36.9939 40.0413 36.9939 35C36.9939 35 36.9526 30.6198 36.9526 30.5372C36.2515 21.3636 28.828 14.0083 19.6311 13.4711C17.3628 13.3471 15.1357 13.595 12.9912 14.2975V6.4876C12.9912 2.93388 10.063 0 6.47496 0C2.88692 0 0 2.93388 0 6.4876V31.9835V32.1488C0 32.2727 0 32.3554 0 32.4793V32.5207C0.206209 42.5207 8.49581 50.9504 18.3114 51.0331C18.3526 51.0331 18.4351 51.0331 18.4763 51.0331C19.2187 51.0331 20.7034 50.9091 20.7034 50.9091C21.4045 50.9091 21.9819 50.2893 21.9819 49.5868C21.9819 48.8843 21.4045 48.2645 20.7034 48.2645C20.7034 48.2645 19.2187 48.4298 18.4763 48.4298C18.4351 48.4298 18.3938 48.4298 18.3526 48.4298C9.93927 48.3471 2.80444 41.0744 2.63947 32.4793V6.4876C2.63947 4.33884 4.37163 2.60331 6.5162 2.60331C8.66078 2.60331 10.3929 4.33884 10.3929 6.4876V18.1405L12.2076 17.3554C14.5171 16.3636 16.9504 15.9091 19.4661 16.0744C27.3433 16.5289 33.7358 22.8099 34.3544 30.7025C34.3544 30.9504 34.3956 35 34.3956 35C34.3956 41.0331 37.695 46.5289 42.9739 49.2975C43.4688 49.5455 44.005 49.7934 44.5411 50L44.7061 50.0413C44.9123 50.124 45.1185 50.2066 45.3247 50.2479L45.5722 50.3306C45.7371 50.3719 45.9434 50.4545 46.1083 50.4959C46.1908 50.5372 46.3145 50.5372 46.397 50.5785C46.562 50.6198 46.7269 50.6612 46.9744 50.7025C47.0569 50.7025 47.1394 50.7438 47.2218 50.7438C47.3868 50.7851 47.593 50.8264 47.758 50.8264H47.8405C47.923 50.8264 48.0054 50.8678 48.0879 50.8678C48.2941 50.9091 48.4591 50.9091 48.6653 50.9504H48.789C48.8303 50.9504 48.9128 50.9504 48.954 50.9504C49.2427 50.9917 49.5314 50.9917 49.8201 50.9917C50.0675 50.9917 50.3562 50.9917 50.6037 50.9917C53.6143 50.9091 56.5425 49.9587 59.017 48.3058C59.182 48.1818 59.3469 48.0992 59.5119 47.9752C62.1926 49.9587 65.4507 51.0331 68.7913 51.0331C68.915 51.0331 69.0387 51.0331 69.1625 51.0331C77.6583 50.8264 84.5457 43.6364 84.5457 35V19.2975C84.5044 19.0909 84.5044 18.8843 84.4632 18.6777Z" fill="#40B766"/>
<path d="M95.0211 43.8843L94.5674 43.843C92.8765 43.719 91.8454 43.5951 91.8454 42.562C91.8454 41.405 93.5776 40.8678 94.8148 40.8678C95.4747 40.8678 97.4543 40.8678 97.908 42.1075C98.0729 42.6447 98.6503 42.7686 99.104 42.6447C99.5577 42.4794 99.9288 42.0661 99.7639 41.405C99.1452 39.7934 97.5368 39.0083 94.8148 39.0083C92.8352 39.0083 89.8658 39.9587 89.8658 42.562C89.8658 45.3719 92.5053 45.6199 94.8148 45.8678L95.1035 45.9091C97.0007 46.0331 98.1554 46.1984 98.1554 47.2728C98.1554 48.5951 95.9696 49.0496 94.9798 49.0496C93.5364 49.0496 91.8454 48.5951 91.6805 47.7273C91.598 47.3554 91.3918 47.0661 91.0618 46.9835C90.6907 46.8595 90.2783 46.9835 89.9896 47.2314C89.7421 47.4794 89.6596 47.7686 89.7421 48.0992C90.237 50.6199 93.5776 50.9091 94.9798 50.9091C96.8769 50.9091 100.135 50.124 100.135 47.2728C100.135 44.3802 97.4131 44.1323 95.0211 43.8843Z" fill="white"/>
<path d="M109.167 39.2149C108.631 39.0909 108.136 39.0083 107.517 39.0083C106.816 39.0083 106.28 39.0909 105.826 39.2149C103.434 39.8761 101.908 41.8595 101.661 44.5455C101.579 46.281 102.032 47.686 103.022 48.8843C104.094 50.2066 105.703 50.9091 107.517 50.9091C109.332 50.9091 110.94 50.2066 112.013 48.8843C113.003 47.686 113.456 46.2397 113.374 44.5455C113.126 41.9422 111.518 39.9174 109.167 39.2149ZM107.476 49.0496C106.321 49.0496 105.208 48.5537 104.507 47.686C103.929 47.0248 103.599 46.0331 103.599 45.0414C103.599 43.0579 104.672 41.529 106.363 41.0744C106.734 40.9918 107.105 40.9091 107.476 40.9091C107.847 40.9091 108.26 40.9504 108.631 41.0744C110.322 41.529 111.394 43.0992 111.394 45.0827C111.394 45.9918 111.064 46.9835 110.487 47.686C109.744 48.5124 108.59 49.0496 107.476 49.0496Z" fill="white"/>
<path d="M116.178 35.8264C115.601 35.8264 115.188 36.2396 115.188 36.7768V49.876C115.188 50.4132 115.601 50.8264 116.178 50.8264C116.714 50.8264 117.168 50.4132 117.168 49.876V36.7768C117.127 36.2396 116.714 35.8264 116.178 35.8264Z" fill="white"/>
<path d="M129.953 39.0908C129.334 39.0908 128.963 39.4627 128.963 40.0412V45.1239C128.963 47.4793 126.942 49.0495 125.045 49.0495C123.478 49.0495 121.869 47.8512 121.869 45.8264V40.0412C121.869 39.4627 121.457 39.0908 120.88 39.0908C120.261 39.0908 119.89 39.4627 119.89 40.0412V45.8264C119.89 49.1735 122.488 50.909 125.045 50.909C126.736 50.909 128.179 50.2478 129.004 49.1321V49.7933C129.004 50.1652 129.169 50.4131 129.334 50.5371C129.87 50.9917 130.984 50.785 130.984 49.8346V40.0412C130.984 39.4627 130.572 39.0908 129.953 39.0908Z" fill="white"/>
<path d="M142.779 47.2726C142.449 47.2313 142.119 47.3553 141.913 47.6445C141.047 48.8429 139.768 49.0082 139.026 49.0082C137.83 49.0082 136.758 48.5123 136.098 47.6445C135.521 46.9834 135.232 46.033 135.232 45.0412C135.232 42.6445 136.758 40.9503 138.944 40.9503C140.057 40.9503 141.006 41.3635 141.748 42.2313C141.954 42.4793 142.284 42.6032 142.614 42.5206C142.985 42.4379 143.274 42.19 143.398 41.8594C143.48 41.5702 143.439 41.2809 143.233 41.033C142.078 39.7107 140.799 39.0908 139.15 39.0908C135.768 39.0908 133.458 41.2396 133.252 44.5454C133.17 46.1569 133.623 47.6445 134.572 48.8016C135.397 49.7933 136.593 50.4958 137.913 50.7024L137.541 51.8181L138.242 52.5619L138.366 52.5206C138.655 52.3966 139.191 52.4379 139.48 52.6032C139.603 52.6859 139.645 52.7685 139.645 52.8925C139.645 52.9338 139.645 53.1404 139.356 53.2231C138.944 53.347 138.242 53.1817 137.995 52.7685C137.748 52.3553 137.294 52.2726 136.881 52.5206C136.51 52.7685 136.263 53.2644 136.552 53.8016C137.046 54.5867 138.078 54.9586 139.026 54.9586C139.315 54.9586 139.603 54.9173 139.892 54.8346C140.923 54.5454 141.501 53.8429 141.501 52.8512C141.501 52.3966 141.294 51.9421 140.964 51.6528C140.717 51.4462 140.346 51.1983 139.727 51.1983L139.892 50.785C141.336 50.5784 142.614 49.9173 143.48 48.8429C143.728 48.5536 143.81 48.2231 143.686 47.8925C143.521 47.5619 143.15 47.314 142.779 47.2726Z" fill="white"/>
<path d="M147.893 37.6859C148.264 37.9339 148.8 37.8925 149.089 37.438C149.171 37.2727 149.295 37.1901 149.419 37.1487C149.666 37.0661 150.079 37.2314 150.615 37.562C151.11 37.8512 151.646 38.0165 152.1 38.0165C152.306 38.0165 152.512 37.9752 152.677 37.9339C153.213 37.7686 153.667 37.3967 153.955 36.8182C154.12 36.5702 154.12 36.2397 153.955 35.9917C153.791 35.7025 153.461 35.5372 153.131 35.5372H153.089C152.76 35.5372 152.471 35.7438 152.347 36.0744C152.1 36.4876 151.852 36.4049 151.151 35.9917C150.697 35.7438 150.161 35.4132 149.543 35.4132C148.718 35.4132 148.058 35.7438 147.646 36.4463C147.357 36.9835 147.563 37.438 147.893 37.6859Z" fill="white"/>
<path d="M152.43 39.2149C151.893 39.0909 151.399 39.0083 150.78 39.0083C150.079 39.0083 149.543 39.0909 149.089 39.2149C146.697 39.8761 145.171 41.8595 144.924 44.5455C144.841 46.281 145.295 47.686 146.285 48.8843C147.357 50.2066 148.965 50.9091 150.78 50.9091C152.595 50.9091 154.203 50.2066 155.275 48.8843C156.265 47.686 156.719 46.2397 156.636 44.5455C156.389 41.9422 154.78 39.9174 152.43 39.2149ZM150.739 49.0496C149.584 49.0496 148.47 48.5537 147.769 47.686C147.192 47.0248 146.862 46.0331 146.862 45.0414C146.862 43.0579 147.934 41.529 149.625 41.0744C149.996 40.9918 150.368 40.9091 150.739 40.9091C151.11 40.9091 151.522 40.9504 151.893 41.0744C153.584 41.529 154.657 43.0992 154.657 45.0827C154.657 45.9918 154.327 46.9835 153.749 47.686C153.007 48.5124 151.852 49.0496 150.739 49.0496Z" fill="white"/>
<path d="M165.874 39.2561H165.833C164.678 38.9669 163.482 38.9669 162.493 39.2561C160.678 39.752 159.317 41.0743 158.698 42.8925C158.038 44.876 158.41 47.1487 159.647 48.8429C160.637 50.1239 162.369 50.8677 164.225 50.8677C164.266 50.8677 164.307 50.8677 164.348 50.8677C165.916 50.8677 167.318 50.3718 168.266 49.5041C168.761 49.0082 168.679 48.4297 168.39 48.1404C168.06 47.8098 167.442 47.6859 166.947 48.1404C165.998 48.8429 164.926 49.0082 164.183 49.0082C162.328 49.0082 160.802 47.8512 160.43 46.1156H168.803C169.256 46.1156 169.586 45.9917 169.834 45.7437C170.04 45.5371 170.122 45.2479 170.081 44.876C169.999 42.066 168.431 39.9586 165.874 39.2561ZM168.101 44.3801H160.307C160.513 42.6859 161.503 41.4875 163.029 41.0743C163.647 40.909 164.39 40.8677 165.008 40.9917L165.256 41.033C166.864 41.4462 167.895 42.7272 168.101 44.3801Z" fill="white"/>
<path d="M176.845 43.8843L176.391 43.843C174.7 43.719 173.669 43.5951 173.669 42.562C173.669 41.405 175.401 40.8678 176.639 40.8678C177.298 40.8678 179.278 40.8678 179.732 42.1075C179.897 42.6447 180.474 42.7686 180.928 42.6447C181.381 42.4794 181.753 42.0661 181.588 41.405C180.969 39.7934 179.361 39.0083 176.639 39.0083C174.659 39.0083 171.69 39.9587 171.69 42.562C171.69 45.3719 174.329 45.6199 176.639 45.8678L176.927 45.9091C178.824 46.0331 179.979 46.1984 179.979 47.2728C179.979 48.5951 177.793 49.0496 176.804 49.0496C175.36 49.0496 173.669 48.5951 173.504 47.7273C173.422 47.3554 173.216 47.0661 172.886 46.9835C172.514 46.8595 172.102 46.9835 171.813 47.2314C171.566 47.4794 171.483 47.7686 171.566 48.0992C172.061 50.6199 175.401 50.9091 176.804 50.9091C178.701 50.9091 181.959 50.124 181.959 47.2728C182 44.3802 179.278 44.1323 176.845 43.8843Z" fill="white"/>
</svg>
